<svg width="224.54" height="228.92" viewBox="-152.96 98.169 102.53 104.53" xmlns="http://www.w3.org/2000/svg"><path d="M-64.912 154.88v-43.57l-23.143-13.144h-22.999l34.713 19.714v43.57zm-59.479 25.957 36.856 21.428h-.142l.571.428 23.714-13.713 11.428-19.857-34.856 20.285-37.57-21.713z" fill="#6ebfc2"/><path d="M-78.719 168.23h.143l-20.57 11.714 11.284 6.57 37.428-21.855v-27.57l-11.428-19.857v40.713zm-.245-48.335-37.427-21.715-23.714 13.715-11.428 20 35.428-20.428 17.142 10h-.286l20.285 11.713z" fill="#d15641"/><path d="m-115.53 115.32-37.427 21.856v27.427l11.428 19.857v-40.713l16.857-10 20.57-11.857z" fill="#6ebfc2"/><path d="M-138.68 144.75v43.57l23.142 13.143h23.142l-34.856-19.714v-43.57z" fill="#d15641"/></svg>
